<?xml version="1.0" encoding="UTF-8"?>
<svg width="140px" height="23px" viewBox="0 0 140 23" version="1.1" xmlns="http://www.w3.org/2000/svg" xmlns:xlink="http://www.w3.org/1999/xlink">
    <title>F5EA73EE-C27A-45C3-A004-9A148C452DB4</title>
    <g id="Page-1" stroke="none" stroke-width="1" fill="none" fill-rule="evenodd">
        <g id="LP-1.0---Landing-Page---Master" transform="translate(-135.000000, -27.000000)">
            <g id="Temporary/Header/Navigation">
                <g id="Atoms/Logo/Default" transform="translate(135.000000, 27.000000)">
                    <g id="Cloudmobility_Logo_pos_Pantone" transform="translate(0.000000, 0.500000)">
                        <path d="M10.4963319,12.1972402 C10.0983406,12.1972402 9.71673362,12.2128908 9.3620262,12.2435808 L9.19439301,12.258131 L9.12482096,12.411214 C8.98200873,12.7254498 8.8191441,13.0149869 8.6411179,13.2717555 C8.4710393,13.5162969 8.25315284,13.7374847 7.98745852,13.9333624 C7.73937118,14.1264279 7.44017467,14.2916157 7.09781659,14.4241572 C6.76316157,14.5540087 6.39818341,14.6199127 6.02146725,14.6200349 C5.53580786,14.6063406 5.09844541,14.5088908 4.7211179,14.3302533 C4.33816594,14.1497817 4.01121397,13.9251703 3.74882096,13.6625328 C3.47004367,13.3841223 3.21743231,13.0241572 2.99820087,12.5922969 C2.78838428,12.1797555 2.6959476,11.7070568 2.72296943,11.1946201 C2.79351965,10.3052227 3.10726638,9.59018341 3.68230568,9.00829694 C4.25624454,8.42738865 4.95966812,8.11058515 5.83769432,8.03942358 C5.9690131,8.02658515 6.10253275,8.02682969 6.24020961,8.04003493 C6.78150218,8.08172926 7.25346725,8.22062882 7.64302183,8.4530655 C8.03942358,8.68965939 8.37383406,8.9850655 8.63561572,9.32925764 C8.7159476,9.43661135 8.78686463,9.55130131 8.84628821,9.67051528 C8.91940611,9.81662882 9.00548472,9.96408734 9.10220087,10.1089782 L9.1831441,10.230393 L9.3290131,10.2367511 C9.6758952,10.2520349 10.053345,10.2598603 10.4510917,10.2598603 C10.8483493,10.2598603 11.2259214,10.2520349 11.5731703,10.2367511 L11.9168734,10.2217118 L11.84131,9.88595633 C11.6993537,9.25467249 11.474131,8.68464629 11.172,8.19128384 L11.1718777,8.1910393 C10.8729258,7.70391266 10.4982882,7.24943231 10.0529782,6.83530131 C9.64349345,6.47350218 9.1589345,6.14765066 8.61275109,5.86679476 C8.05409607,5.57970306 7.42476856,5.40179913 6.7400524,5.3379738 C6.37837555,5.30667249 5.99664629,5.30655022 5.60525764,5.33772926 C5.21521397,5.36927511 4.88104803,5.41732751 4.60593886,5.48176419 C3.99409607,5.63875983 3.44791266,5.85432314 2.98267249,6.12246288 C2.51608734,6.39158079 2.08716157,6.72831441 1.71166812,7.11933624 C1.30108297,7.52979913 0.937572052,8.02878603 0.631039301,8.60248035 C0.320471616,9.18412227 0.122882096,9.86345852 0.044139738,10.6194585 C-0.0187074236,11.1848384 -0.0144279476,11.7198952 0.0567336245,12.2094672 C0.127528384,12.6979389 0.247720524,13.1576769 0.413641921,13.5759651 C0.579563319,13.9948646 0.784366812,14.380262 1.02255022,14.7213974 C1.25975546,15.0617991 1.51664629,15.3625852 1.78686463,15.6164192 C2.24158952,16.0399651 2.78055895,16.4166812 3.38873362,16.7360524 C4.01023581,17.0630044 4.70424454,17.2530131 5.44875109,17.3004541 C5.65868996,17.3159825 5.86263755,17.3238079 6.06047162,17.3238079 C6.86941485,17.3238079 7.57565066,17.1944454 8.16585153,16.9376769 C8.88443668,16.6253974 9.51926638,16.2283843 10.0544454,15.7559301 C10.5107598,15.3470568 10.8943231,14.8913537 11.1946201,14.4016594 C11.4966288,13.908786 11.7295546,13.3001223 11.8867948,12.592786 L11.9580786,12.2719476 L11.6305153,12.2435808 C11.2756856,12.2128908 10.8940786,12.1972402 10.4963319,12.1972402" id="Fill-1" fill="#FFFFFF"></path>
                        <path d="M17.2819913,13.8038777 C16.6900786,13.2464454 16.35469,12.4683144 16.2849956,11.4906376 C16.2255721,10.6739913 16.2104105,9.78924017 16.2402445,8.86034934 C16.2704454,7.91360699 16.2857293,6.95451528 16.2857293,6.00960699 L16.2857293,0.197100437 L13.9601397,0.197100437 C13.9283493,0.197100437 13.6495721,0.207860262 13.6495721,0.575650655 L13.6495721,9.31531878 C13.6495721,9.80648035 13.6382009,10.3009432 13.6159476,10.7850131 C13.5928384,11.2865677 13.6045764,11.7840873 13.6506725,12.2599651 C13.7142533,13.0256245 13.9411878,13.7344279 14.3254847,14.36669 C14.7009782,14.9850131 15.1229345,15.5057642 15.5713013,15.907179 C16.0491354,16.3691179 16.6327336,16.7398428 17.3059563,17.0089607 C17.8833188,17.2400524 18.5492052,17.3565764 19.2902882,17.3565764 C19.4181834,17.3565764 19.548524,17.3531528 19.680821,17.3461834 L19.953607,17.3318777 L19.953607,14.7751965 L19.6859563,14.7563668 C18.6871266,14.6860611 17.8784279,14.3655895 17.2819913,13.8038777" id="Fill-4" fill="#FFFFFF"></path>
                        <path d="M30.019179,11.2250655 L30.019179,11.4797555 C29.9903231,11.9216419 29.8888384,12.3334498 29.7175371,12.7036856 C29.5442795,13.0775895 29.3168559,13.4031965 29.0419913,13.6713362 C28.765048,13.94131 28.4416419,14.1626201 28.080821,14.3292751 C27.724524,14.493607 27.335214,14.5914236 26.9238952,14.6197904 C26.7703231,14.6195459 26.6233537,14.6124541 26.4862882,14.5987598 C26.3477555,14.5849432 26.2147249,14.5639127 26.0885415,14.5356681 C25.3841397,14.3839301 24.7892926,14.0341135 24.3203843,13.496 C23.8513537,12.958131 23.5854148,12.2836856 23.5292926,11.48269 C23.5166987,11.3567511 23.5198777,11.2284891 23.538952,11.1014498 C23.5614498,10.9516681 23.5872489,10.8039651 23.6145153,10.6683668 C23.6971703,10.2964192 23.8286114,9.97020087 24.0052926,9.69839301 C24.1860087,9.41986026 24.3972926,9.1731179 24.6406114,8.95865502 C24.886131,8.72682969 25.1579389,8.54758079 25.4484541,8.42604367 C25.7470393,8.30120524 26.1291354,8.20889083 26.5831266,8.15215721 C26.6946376,8.13870742 26.8049258,8.13186026 26.9137467,8.13186026 C27.2415546,8.13186026 27.5570131,8.19275109 27.8551092,8.31404367 C28.2675284,8.4819214 28.6162445,8.69283843 28.8917205,8.94055895 C29.1704978,9.19145852 29.4261659,9.51168559 29.6518777,9.89206987 C29.866952,10.2555808 29.9905677,10.7040699 30.019179,11.2250655 Z M32.3247162,9.16406987 C31.9723319,8.37346725 31.5220087,7.7008559 30.9859738,7.16445415 C30.717345,6.89619214 30.4064105,6.6410131 30.061607,6.40576419 C29.7127686,6.1679476 29.3273712,5.96730131 28.9159301,5.8089607 C28.5035109,5.65037555 28.046952,5.538131 27.5588472,5.4750393 C27.0697642,5.41243668 26.5509694,5.41219214 26.0096769,5.47565066 C25.7920349,5.50682969 25.5939563,5.54253275 25.4206987,5.58178166 C25.2480524,5.62103057 25.0816419,5.66455895 24.9262358,5.71126638 L24.9125415,5.71566812 C24.4257817,5.88855895 23.9868297,6.10033188 23.6074236,6.34536245 C23.2291179,6.58990393 22.8703755,6.88078603 22.5412227,7.20981659 C22.1314934,7.61966812 21.7685939,8.10985153 21.4623057,8.66728384 C21.1506376,9.23474236 20.952559,9.90747598 20.8739389,10.6646987 C20.8109694,11.229345 20.8152489,11.7608559 20.8865328,12.2441921 C20.9574498,12.7255721 21.0780087,13.174917 21.2446638,13.5796332 C21.4105852,13.982393 21.6108646,14.3547074 21.8398777,14.6861834 C22.0677904,15.0166812 22.311476,15.3120873 22.5637205,15.5638428 C22.8308821,15.8314934 23.133869,16.0826376 23.4641223,16.3106725 C23.79731,16.5406638 24.1742707,16.74131 24.5842445,16.9068646 C24.995441,17.0729083 25.4439301,17.1931004 25.9172402,17.2640175 C26.1705852,17.3021659 26.4364017,17.3211179 26.7123668,17.3211179 C26.9550742,17.3211179 27.2054847,17.3064454 27.4620087,17.2771004 C28.2044367,17.1981135 28.8792489,17.0008908 29.467738,16.69069 C30.051214,16.3829345 30.5632838,16.0027948 30.9862183,15.5640873 C31.4111092,15.1391965 31.785869,14.6292052 32.0999825,14.0484192 C32.4178865,13.4602969 32.6193886,12.7924541 32.6992314,12.0605415 C32.8090306,10.9429869 32.6830917,9.96848908 32.3248384,9.16419214 L32.3247162,9.16406987 L32.3247162,9.16406987 Z" id="Fill-5" fill="#FFFFFF"></path>
                        <path d="M56.8209258,11.9904803 C56.7028122,12.5040175 56.4856594,12.9600873 56.175214,13.3462183 C55.863179,13.7346725 55.4801048,14.0438952 55.0368734,14.2653275 C54.5964541,14.4855371 54.1293799,14.5971703 53.6486114,14.5971703 C53.2056245,14.5971703 52.7749869,14.5096245 52.368559,14.3369782 C51.9604192,14.1640873 51.6033886,13.9227249 51.3072489,13.6196157 C51.0115983,13.3173624 50.7772052,12.9496943 50.610917,12.5268821 C50.446952,12.1103057 50.3848384,11.6471441 50.4261659,11.151214 C50.4962271,10.336524 50.7882096,9.67577293 51.3189869,9.13130131 C51.850131,8.58609607 52.4977991,8.27320524 53.2923144,8.17526638 C53.4171528,8.16291703 53.5404017,8.15668122 53.6620611,8.15668122 C53.9460961,8.15668122 54.2207162,8.19055022 54.4820087,8.25804367 C54.8555459,8.35500437 55.195214,8.50539738 55.4913537,8.70469869 C55.7860262,8.90363319 56.0394934,9.150131 56.2445415,9.43734498 C56.4528908,9.7289607 56.6150218,10.0462533 56.7251878,10.3757729 C56.904559,10.942131 56.9367162,11.4855022 56.8209258,11.9904803 Z M59.6079651,8.9871441 L59.6079651,8.98702183 C59.5706725,8.0339214 59.5515983,7.06272489 59.5515983,6.10033188 C59.5515983,5.1081048 59.5555109,4.13776419 59.5629694,3.21572052 C59.5703057,2.25540611 59.5588122,1.28054148 59.5288559,0.317781659 L59.5201747,0.0387598253 L57.2033886,0.0387598253 C57.1305153,0.0387598253 56.892821,0.0677379913 56.892821,0.435895197 C56.8777817,1.52043668 56.8777817,2.62368559 56.892821,3.71556332 C56.9052926,4.62330131 56.8967336,5.52614847 56.8675109,6.40686463 C56.3987249,6.11145852 55.9047511,5.87535371 55.3934148,5.70282969 C54.7094323,5.47271616 53.8786026,5.39556332 52.9187773,5.47418341 C52.2676856,5.53764192 51.632,5.72275983 51.0294498,6.02391266 C50.4292227,6.32408734 49.8892751,6.71596507 49.424524,7.18903057 C48.960262,7.66099563 48.5733974,8.19947598 48.2748122,8.78894323 C47.9721921,9.38635808 47.7944105,10.0209432 47.7467249,10.6727686 C47.6525764,11.8169782 47.7743581,12.7923319 48.108524,13.5720524 C48.4398777,14.345048 48.9118428,15.0247511 49.5084017,15.5896419 C50.0586201,16.1242096 50.7263406,16.5697642 51.4929782,16.9137118 C52.0899039,17.1820961 52.7744978,17.3167162 53.5330655,17.3167162 C53.7691703,17.3167162 54.0126114,17.3037555 54.262655,17.2775895 C54.9745153,17.2144978 55.6492052,17.0255895 56.2678952,16.7162445 C56.8820611,16.4091004 57.4295895,16.0134323 57.895441,15.5397555 C58.3615371,15.0654672 58.7457118,14.5092576 59.0376943,13.8862882 C59.3308996,13.260262 59.5035459,12.5819039 59.5506201,11.8740786 C59.6265502,10.9314934 59.645869,9.96017467 59.6079651,8.9871441 L59.6079651,8.9871441 Z" id="Fill-6" fill="#FFFFFF"></path>
                        <path d="M45.7697293,5.35949345 L43.3987773,5.35949345 L43.3987773,5.64744105 C43.3987773,6.20083843 43.4050131,6.72599127 43.4108821,7.23390393 C43.416262,7.69645415 43.4213974,8.14054148 43.4213974,8.56812227 C43.4213974,8.80630568 43.4256769,9.06172926 43.4299563,9.32754585 C43.4408384,9.98927511 43.4531878,10.7394061 43.3997555,11.4209432 C43.3293275,12.309607 43.0121572,13.024524 42.4301485,13.6061659 C41.8519301,14.1848734 41.1414148,14.4942183 40.2586201,14.5519301 L40.165083,14.5519301 C39.2821659,14.4942183 38.5717729,14.1848734 37.9931878,13.6060437 C37.4114236,13.024524 37.0943755,12.3097293 37.0239476,11.4211878 C36.9705153,10.7394061 36.9828646,9.98927511 36.9937467,9.32754585 C36.9980262,9.06172926 37.0021834,8.80630568 37.0021834,8.56812227 C37.0021834,8.14054148 37.007441,7.69645415 37.012821,7.23390393 C37.01869,6.72599127 37.0248035,6.20083843 37.0248035,5.64744105 L37.0248035,5.35949345 L34.6539738,5.35949345 C34.5464978,5.35949345 34.3434061,5.43383406 34.3434061,5.71530131 L34.3434061,11.4390393 C34.3434061,15.1056943 37.0704105,17.1040873 39.8553712,17.2532576 L40.1586026,17.2630393 C40.1700961,17.2636507 40.1814672,17.264262 40.1928384,17.264262 L40.2116681,17.2637729 L40.2308646,17.264262 C40.2422358,17.264262 40.2537293,17.2636507 40.2684017,17.262917 L40.5682096,17.2575371 L40.5682096,17.2532576 C43.3532926,17.1040873 46.0802969,15.1056943 46.0802969,11.4390393 L46.0802969,5.71530131 C46.0802969,5.43383406 45.877083,5.35949345 45.7697293,5.35949345" id="Fill-7" fill="#FFFFFF"></path>
                        <path d="M87.6363319,11.3876856 C87.6363319,13.3687162 87.3009432,14.7973275 86.6394585,15.6335371 C86.1662707,16.2344978 85.5613974,16.5390742 84.8414672,16.5390742 C84.3840524,16.5390742 83.9779913,16.4177817 83.6348996,16.1788646 C83.1899563,15.8623057 82.8573799,15.4300786 82.6462183,14.8942882 C82.29469,14.0081921 82.1164192,12.8246114 82.1164192,11.3759476 C82.1164192,9.30321397 82.4787074,7.82434934 83.1932576,6.98092576 C83.6664454,6.42508297 84.2326812,6.14324891 84.8763144,6.14324891 C86.7076856,6.14324891 87.6363319,7.90786026 87.6363319,11.3876856 Z M85.0273188,5.41744978 C83.6595983,5.41744978 82.5380087,5.96033188 81.6938515,7.03117904 L81.6937293,7.03117904 C80.8377118,8.12073362 80.4036507,9.58260262 80.4036507,11.3759476 C80.4036507,13.0296594 80.7901485,14.4240349 81.5526288,15.5208035 C82.3657293,16.6780961 83.4801048,17.2648734 84.864821,17.2648734 C85.5216594,17.2648734 86.1462183,17.1142358 86.7212576,16.8169956 C87.2965415,16.5196332 87.7785328,16.0991441 88.1539039,15.5671441 C88.9468297,14.4321048 89.3489782,13.0025153 89.3489782,11.3179913 C89.3489782,9.65694323 88.9509869,8.23530131 88.1656419,7.09231441 C87.398393,5.98087336 86.3425852,5.41744978 85.0273188,5.41744978 L85.0273188,5.41744978 Z" id="Fill-8" fill="#00D770"></path>
                        <path d="M105.320349,3.58937991 C105.6451,3.58937991 105.925223,3.47383406 106.152891,3.24628821 C106.380437,3.01886463 106.49586,2.73470742 106.49586,2.402131 C106.49586,2.07725764 106.380437,1.79713537 106.152891,1.56934498 C105.9251,1.34179913 105.648769,1.22637555 105.331721,1.22637555 C104.999633,1.22637555 104.712052,1.34155459 104.476681,1.56861135 L104.475948,1.56934498 C104.248402,1.79676856 104.1331,2.08092576 104.1331,2.41362445 C104.1331,2.73067249 104.248157,3.01055022 104.475948,3.24628821 C104.703493,3.47383406 104.987528,3.58937991 105.320349,3.58937991" id="Fill-9" fill="#00D770"></path>
                        <path d="M117.753817,3.58937991 C118.078568,3.58937991 118.35869,3.47383406 118.58648,3.24628821 C118.814026,3.01874236 118.929328,2.73458515 118.929328,2.402131 C118.929328,2.07725764 118.814026,1.79713537 118.58648,1.56934498 C118.358568,1.34179913 118.082358,1.22637555 117.765432,1.22637555 C117.4331,1.22637555 117.145397,1.34155459 116.910148,1.56861135 L116.909415,1.56934498 C116.681869,1.79689083 116.566568,2.08092576 116.566568,2.41362445 C116.566568,2.73067249 116.681624,3.01055022 116.909415,3.24628821 C117.136961,3.47383406 117.420996,3.58937991 117.753817,3.58937991" id="Fill-10" fill="#00D770"></path>
                        <path d="M77.4143755,16.2039301 C77.3144803,16.0685764 77.2638603,15.8072838 77.2638603,15.4276332 L77.2638603,9.34429694 C77.2638603,8.24055895 77.1285066,7.4300262 76.8619563,6.93568559 C76.3496419,5.97439301 75.4019214,5.48702183 74.0449607,5.48702183 C73.0277904,5.48702183 72.189869,5.78144978 71.5535721,6.36272489 C71.3151441,6.58648035 71.064,6.89081223 70.8056419,7.26801747 C70.6046288,6.82417467 70.373048,6.47692576 70.1166463,6.23495197 C69.588559,5.73865502 68.8636157,5.48702183 67.9617467,5.48702183 C67.0146376,5.48702183 66.2124192,5.76139738 65.5769782,6.30268996 C65.3435633,6.501869 65.0958428,6.78468122 64.8388297,7.14537991 C64.8247686,6.49294323 64.7750044,5.8599476 64.6905153,5.2610655 L64.6796332,5.18427948 L64.6074934,5.21264629 C63.8111441,5.52663755 62.8547424,5.76763319 61.7650655,5.92878603 L61.7129782,5.93648908 L61.7129782,6.37324017 L61.7717904,6.37544105 C62.7763668,6.41273362 63.1079651,6.50076856 63.2074934,6.56936245 C63.2787773,6.65128384 63.3637555,6.91868996 63.373048,7.71919651 L63.373048,15.4276332 C63.373048,15.6837904 63.358131,15.865607 63.3280524,15.9713712 C63.278655,16.1901135 63.1139563,16.3386725 62.8250306,16.4252402 C62.5374498,16.5087511 62.1674585,16.5587598 61.7255721,16.5739214 L61.6665153,16.5758777 L61.6665153,17.1082445 L61.7331528,17.102131 C62.7396856,17.0099389 63.5579214,16.9631092 64.165607,16.9631092 C64.773048,16.9631092 65.595441,17.0099389 66.6095546,17.102131 L66.6763144,17.1082445 L66.6763144,16.5764891 L66.617869,16.5739214 C65.5675633,16.5270917 65.2238603,16.3471092 65.1202969,16.2039301 C65.0202795,16.0685764 64.9696594,15.8074061 64.9696594,15.4276332 L64.9696594,9.93645415 C64.9696594,8.94691703 65.1226201,8.20827948 65.4247511,7.73998253 C65.8902358,6.99633188 66.6071092,6.61924891 67.555441,6.61924891 C68.3327162,6.61924891 68.8928384,6.91343231 69.2200349,7.49324017 C69.4153013,7.84635808 69.5143406,8.4769083 69.5143406,9.36752838 L69.5143406,15.4276332 C69.5143406,15.6835459 69.4994236,15.8652402 69.469345,15.9713712 C69.4199476,16.1901135 69.2552489,16.3386725 68.9659563,16.4253624 C68.6860786,16.5088734 68.3202445,16.5587598 67.8783581,16.5739214 L67.8193013,16.5758777 L67.8193013,17.1082445 L67.8860611,17.102131 C68.8847686,17.0099389 69.7031266,16.9631092 70.3185153,16.9631092 C70.9259563,16.9631092 71.7443144,17.0099389 72.7507249,17.102131 L72.8173624,17.1082445 L72.8173624,16.5764891 L72.7590393,16.5739214 C71.7087336,16.5270917 71.3651528,16.3471092 71.2615895,16.2039301 C71.1615721,16.0685764 71.1108297,15.8072838 71.1108297,15.4276332 L71.1108297,9.5881048 C71.1108297,8.77573799 71.2483843,8.13809607 71.5198253,7.6929083 C71.9548646,6.98055895 72.6714934,6.61924891 73.6502707,6.61924891 C74.4963843,6.61924891 75.0836507,6.91697817 75.3956856,7.50412227 C75.5759127,7.84195633 75.6672489,8.44951965 75.6672489,9.30957205 L75.6672489,15.4276332 C75.6672489,15.6835459 75.6523319,15.8653624 75.6222533,15.9713712 C75.5729782,16.1901135 75.4081572,16.3386725 75.1192314,16.4252402 C74.8315284,16.5087511 74.4616594,16.5587598 74.0196507,16.5739214 L73.9607162,16.5758777 L73.9607162,17.1082445 L74.027476,17.102131 C75.0336419,17.0099389 75.8521223,16.9631092 76.4596856,16.9631092 C77.074952,16.9631092 77.8971004,17.0099389 78.9036332,17.102131 L78.970393,17.1082445 L78.970393,16.5764891 L78.9119476,16.5739214 C77.8617642,16.5270917 77.5181834,16.3471092 77.4143755,16.2039301" id="Fill-11" fill="#00D770"></path>
                        <path d="M118.627197,16.2039301 C118.527179,16.0685764 118.476559,15.8072838 118.476559,15.4276332 L118.476559,5.27121397 L118.399651,5.29163319 C117.47993,5.53715284 116.420821,5.72006987 115.25179,5.83573799 L115.196646,5.8411179 L115.196646,6.29364192 L115.25717,6.29425328 C116.056087,6.30183406 116.548961,6.40075109 116.717939,6.58317904 C116.825415,6.72648035 116.879948,7.03839301 116.879948,7.50999127 L116.879948,15.4276332 C116.879948,15.6836681 116.865031,15.8654847 116.835074,15.9713712 C116.785555,16.1901135 116.620734,16.3386725 116.33193,16.4252402 C116.044349,16.5087511 115.674358,16.5587598 115.232349,16.5739214 L115.173415,16.5758777 L115.173415,17.1082445 L115.240052,17.102131 C116.246463,17.0099389 117.068856,16.9631092 117.684122,16.9631092 C118.291563,16.9631092 119.109921,17.0099389 120.116332,17.102131 L120.183092,17.1082445 L120.183092,16.5764891 L120.124769,16.5739214 C119.074463,16.5270917 118.73076,16.3471092 118.627197,16.2039301" id="Fill-12" fill="#00D770"></path>
                        <path d="M125.996332,16.2602969 C125.392314,16.2602969 124.999825,16.0036507 124.799301,15.4747074 C124.656245,15.1126638 124.582882,14.4406638 124.582882,13.4772926 L124.582882,6.66583406 L127.473362,6.66583406 L127.473362,5.68436681 L124.582882,5.68436681 L124.582882,2.34099563 L123.982533,2.34099563 L123.973974,2.39198253 C123.684192,4.1139214 123.179214,5.19308297 122.473712,5.59853275 C122.203371,5.74110044 121.856,5.82876856 121.441013,5.85872489 L121.384279,5.86275983 L121.384279,6.66583406 L122.973799,6.66583406 L122.905328,13.1511965 C122.897991,13.5861135 122.8931,13.914655 122.8931,14.1272838 C122.8931,15.1737991 123.081397,15.9441048 123.451878,16.4176594 C123.881048,16.9567511 124.537642,17.2300262 125.404541,17.2300262 C126.092926,17.2300262 126.828996,17.0126288 127.593188,16.5837031 L127.624978,16.5662183 L127.624978,15.834917 L127.539389,15.8704978 C126.923144,16.1292227 126.404716,16.2602969 125.996332,16.2602969" id="Fill-13" fill="#00D770"></path>
                        <path d="M139.828821,5.61491703 C139.053624,5.67641921 138.348122,5.70759825 137.7331,5.70759825 C137.164541,5.70759825 136.592314,5.67641921 136.032314,5.6150393 L135.965066,5.60758079 L135.965066,6.12894323 L136.023755,6.13163319 C136.367336,6.14716157 136.649782,6.17406114 136.862533,6.21208734 C137.188996,6.26869869 137.346725,6.40845415 137.346725,6.63930131 C137.346725,6.73931878 137.296594,6.92370306 137.2,7.18682969 L134.51738,14.3572751 L131.892227,7.16445415 C131.761397,6.79910917 131.733275,6.64578166 131.733275,6.58146725 C131.733275,6.5110393 131.733275,6.29682096 132.25048,6.21233188 C132.45345,6.18139738 132.678428,6.154131 132.920524,6.13151092 L132.975546,6.12625328 L132.975546,5.60880349 L132.90952,5.6150393 C132.086638,5.69182533 131.3469,5.73082969 130.708646,5.73082969 C130.071616,5.73082969 129.331878,5.69182533 128.508996,5.6150393 L128.441747,5.60880349 L128.441747,6.12796507 L128.499214,6.13163319 C128.980961,6.16220087 129.336769,6.20462882 129.553188,6.25647162 C129.827074,6.34316157 130.048384,6.60041921 130.211004,7.02029694 L133.696943,16.5646288 L133.033013,18.2606463 C132.668646,19.1555459 132.212576,19.750393 131.678253,20.029048 C131.271092,20.2476681 130.753886,20.3623581 130.140087,20.3700611 L130.078952,20.3707948 L130.078952,21.640821 L130.140087,21.6415546 C130.162096,21.6419214 130.184105,21.6419214 130.207336,21.6419214 C130.873712,21.6419214 131.444716,21.530655 131.908122,21.3108122 C132.30917,21.1214148 132.655197,20.8399476 132.933974,20.4741135 C133.211528,20.1107249 133.470742,19.6033013 133.703057,18.9665153 L138.137817,7.05502183 C138.279651,6.66779039 138.525415,6.42178166 138.886114,6.30379039 C139.11476,6.24289956 139.436332,6.18482096 139.842271,6.1311441 L139.894847,6.12417467 L139.894847,5.60978166 L139.828821,5.61491703" id="Fill-14" fill="#00D770"></path>
                        <path d="M106.193729,16.2039301 C106.093834,16.0684541 106.043092,15.8071616 106.043092,15.4276332 L106.043092,5.27121397 L105.966183,5.29163319 C105.046463,5.53715284 103.987476,5.72006987 102.818323,5.83573799 L102.763179,5.8411179 L102.763179,6.29364192 L102.823703,6.29425328 C103.622742,6.30183406 104.115493,6.40075109 104.284472,6.58317904 C104.391948,6.72672489 104.44648,7.03851528 104.44648,7.50999127 L104.44648,15.4276332 C104.44648,15.6835459 104.431563,15.8653624 104.401485,15.9713712 C104.352087,16.1901135 104.187389,16.3386725 103.898463,16.4252402 C103.610882,16.5087511 103.241013,16.5587598 102.798882,16.5739214 L102.739948,16.5758777 L102.739948,17.1082445 L102.806707,17.102131 C103.812996,17.0099389 104.635266,16.9631092 105.250533,16.9631092 C105.858096,16.9631092 106.676454,17.0099389 107.682987,17.102131 L107.749747,17.1082445 L107.749747,16.5764891 L107.691301,16.5739214 C106.640996,16.5270917 106.297415,16.3471092 106.193729,16.2039301" id="Fill-15" fill="#00D770"></path>
                        <path d="M94.312559,14.8574847 C93.9540611,14.0412052 93.7721223,12.9362445 93.7721223,11.5732926 C93.7721223,10.0411179 93.9852402,8.7840524 94.4057293,7.83620961 C94.6166463,7.3460262 94.9201223,6.95830568 95.3078428,6.68344105 C95.6939738,6.40979913 96.125345,6.27102183 96.5899738,6.27102183 C98.4599825,6.27102183 99.4080699,8.00029694 99.4080699,11.4107948 C99.4080699,13.3828996 99.0576419,14.7873013 98.3668122,15.5843843 C97.8628122,16.1562445 97.2572052,16.4461485 96.5669869,16.4461485 C96.1093275,16.4461485 95.6872489,16.3169083 95.3127336,16.0619738 C94.8600873,15.7526288 94.5235983,15.3475459 94.312559,14.8574847 Z M96.7759476,5.48702183 C95.8886288,5.48702183 95.1475459,5.77814847 94.5738515,6.35196507 C94.3035109,6.61533624 94.0422183,6.97860262 93.795476,7.43430568 L93.795476,0.847947598 L93.7184454,0.868733624 C92.8047162,1.11437555 91.7418166,1.29741485 90.5589694,1.41247162 L90.5038253,1.41785153 L90.5038253,1.87123144 L90.5649607,1.87123144 C91.3697467,1.87123144 91.8616419,1.9729607 92.0260961,2.17299563 C92.1329607,2.3081048 92.1870044,2.61573799 92.1870044,3.08696943 L92.1870044,17.2997205 L92.8709869,17.2997205 L93.6500961,15.2408035 C94.354131,16.5608384 95.3934323,17.2300262 96.7411004,17.2300262 C98.032524,17.2300262 99.0959127,16.6708821 99.90131,15.5684891 C100.710498,14.4794236 101.120838,13.0689083 101.120838,11.3759476 C101.120838,9.70719651 100.734341,8.30878603 99.9718603,7.21959825 C99.1663406,6.07000873 98.0910917,5.48702183 96.7759476,5.48702183 L96.7759476,5.48702183 Z" id="Fill-16" fill="#00D770"></path>
                        <path d="M112.451057,16.2039301 C112.351162,16.0685764 112.300419,15.8072838 112.300419,15.4276332 L112.300419,0.847825328 L112.223389,0.868733624 C111.317607,1.11437555 110.258498,1.29741485 109.075528,1.41247162 L109.020384,1.41785153 L109.020384,1.87123144 L109.08152,1.87123144 C109.879336,1.87123144 110.371476,1.97332751 110.542777,2.17287336 C110.649642,2.30834934 110.70393,2.61598253 110.70393,3.08696943 L110.70393,15.4276332 C110.70393,15.6834236 110.689135,15.8652402 110.659057,15.9713712 C110.609415,16.1901135 110.444716,16.3386725 110.15579,16.4252402 C109.86821,16.5087511 109.498218,16.5587598 109.05621,16.5739214 L108.997275,16.5758777 L108.997275,17.1082445 L109.064035,17.102131 C110.070323,17.0099389 110.892716,16.9631092 111.507983,16.9631092 C112.115424,16.9631092 112.933782,17.0099389 113.940314,17.102131 L114.006952,17.1082445 L114.006952,16.5764891 L113.948629,16.5739214 C112.898323,16.5270917 112.554742,16.3471092 112.451057,16.2039301" id="Fill-17" fill="#00D770"></path>
                    </g>
                </g>
            </g>
        </g>
    </g>
</svg>